<svg width="10" height="10" viewBox="0 0 10 10" fill="none" xmlns="http://www.w3.org/2000/svg">
<path d="M7.165 0C8.86 0 10 1.19 10 2.955V7.04C10 8.81 8.86 10 7.165 10H2.83C1.1355 10 0 8.81 0 7.04V2.955C0 1.19 1.1355 0 2.83 0H7.165ZM5 2.585C4.79 2.585 4.625 2.75 4.625 2.96V6.135L3.39 4.895C3.32 4.825 3.22 4.785 3.125 4.785C3.0305 4.785 2.935 4.825 2.86 4.895C2.715 5.04 2.715 5.28 2.86 5.425L4.735 7.31C4.875 7.45 5.125 7.45 5.265 7.31L7.14 5.425C7.285 5.28 7.285 5.04 7.14 4.895C6.99 4.75 6.755 4.75 6.605 4.895L5.375 6.135V2.96C5.375 2.75 5.205 2.585 5 2.585Z" fill="#FFCB66"/>
</svg>
