<svg width="250" height="213" viewBox="0 0 250 213" fill="none" xmlns="http://www.w3.org/2000/svg">
<g clip-path="url(#clip0_496_2015)">
<path d="M83.4466 212.584C128.242 212.584 164.556 205.505 164.556 196.772C164.556 188.039 128.242 180.96 83.4466 180.96C38.6508 180.96 2.33667 188.039 2.33667 196.772C2.33667 205.505 38.6508 212.584 83.4466 212.584Z" fill="#33404F"/>
<path d="M18.5206 192.965C18.5206 192.965 3.48156 188.921 0.644178 189.22C-2.1932 189.519 4.94271 175.352 9.6951 177.08C14.4475 178.807 20.784 183.352 24.4062 176.933C28.0283 170.515 30.0604 167.06 34.4731 167.405C38.8859 167.751 44.9969 164.644 49.4067 167.405C53.8165 170.166 56.9145 173.572 63.0051 173.425C69.0956 173.279 74.87 159.461 79.6136 164.989C84.3572 170.518 90.0466 175.575 94.5062 173.736C98.9658 171.897 104.055 174.661 108.128 177.771C112.201 180.881 119.331 179.498 122.045 177.08C124.76 174.661 126.801 172.933 132.569 173.273C138.338 173.613 156.671 177.765 163.461 182.936C170.252 188.107 154.636 194.684 147.166 194.684C139.696 194.684 138.341 196.757 131.89 199.867C125.439 202.976 114.907 198.139 107.449 203.322C99.9906 208.505 90.4653 200.558 77.5814 203.322C64.6976 206.086 67.3973 209.884 59.9276 207.128C52.4579 204.373 55.1752 203.322 44.3117 202.637C33.4483 201.952 21.5688 204.364 20.5498 199.873C19.5308 195.381 12.7492 194.344 8.67318 192.962C4.59719 191.58 18.5206 192.965 18.5206 192.965Z" fill="#33404F"/>
<path d="M205.84 155.696L206.426 155.321L206.599 155.21C205.317 154.992 204.147 154.344 203.282 153.373C202.417 152.402 201.908 151.165 201.84 149.866C201.772 148.567 202.148 147.284 202.907 146.228C203.665 145.171 204.761 144.404 206.013 144.054L205.984 146.414L207.281 143.846C208.032 143.811 208.783 143.924 209.491 144.179C210.199 144.434 210.849 144.826 211.405 145.333C211.961 145.84 212.412 146.451 212.732 147.131C213.052 147.812 213.234 148.549 213.269 149.301C213.269 149.412 213.269 149.517 213.269 149.626C213.726 149.129 214.107 148.566 214.399 147.957C214.95 146.73 214.959 145.345 214.918 143.658C214.83 140.32 214.686 136.956 214.499 133.6C213.145 133.45 211.888 132.822 210.956 131.828C210.024 130.835 209.476 129.541 209.413 128.18C209.404 128.007 209.404 127.834 209.413 127.662C209.413 127.618 209.413 127.574 209.413 127.533C209.413 127.366 209.439 127.202 209.465 127.038C209.464 127.012 209.464 126.985 209.465 126.959C209.486 126.821 209.515 126.687 209.547 126.552C209.547 126.502 209.574 126.452 209.586 126.403C209.627 126.256 209.67 126.11 209.723 125.969C209.741 125.922 209.758 125.878 209.779 125.832C209.82 125.726 209.864 125.624 209.911 125.521C209.934 125.469 209.957 125.413 209.984 125.36L210.004 125.319C210.61 124.124 211.616 123.179 212.846 122.648C214.076 122.118 215.454 122.035 216.739 122.414L216.701 125.486L217.983 122.95C218.814 123.429 219.512 124.109 220.011 124.928C220.511 125.746 220.796 126.677 220.841 127.635C220.865 128.132 220.823 128.629 220.715 129.114C220.715 129.155 220.692 129.193 220.683 129.234C220.674 129.275 220.645 129.386 220.625 129.46C220.604 129.533 220.569 129.65 220.537 129.752C220.505 129.855 220.49 129.893 220.464 129.963C220.437 130.034 220.379 130.162 220.335 130.256C220.308 130.312 220.285 130.37 220.259 130.429C220.185 130.575 220.106 130.722 220.021 130.862C219.992 130.912 219.957 130.959 219.928 131.006C219.866 131.099 219.805 131.196 219.737 131.299C219.67 131.401 219.653 131.41 219.609 131.462C219.565 131.515 219.483 131.621 219.415 131.697C219.348 131.773 219.319 131.802 219.269 131.855C219.219 131.908 219.128 132.001 219.052 132.072L218.903 132.212L218.642 132.429L218.508 132.534C218.37 132.634 218.232 132.727 218.086 132.827L218.004 132.874C217.884 132.948 217.759 133.015 217.632 133.076L217.468 133.149C217.366 133.196 217.26 133.243 217.152 133.281L216.964 133.348C216.859 133.386 216.754 133.418 216.645 133.448L216.452 133.498C216.335 133.527 216.215 133.55 216.095 133.571H216.071C216.149 134.988 216.22 136.404 216.282 137.82C216.623 137.118 217.104 136.494 217.695 135.985C218.286 135.477 218.975 135.094 219.719 134.862C220.463 134.629 221.247 134.55 222.023 134.632C222.799 134.713 223.549 134.952 224.229 135.334L223.219 138.109L225.301 136.109C226.417 137.13 227.083 138.552 227.152 140.062C227.177 140.593 227.128 141.124 227.005 141.641C226.746 142.761 226.155 143.778 225.31 144.558C224.465 145.338 223.404 145.845 222.266 146.013C221.129 146.182 219.966 146.004 218.931 145.502C217.896 145 217.037 144.199 216.464 143.201C216.464 143.345 216.464 143.494 216.464 143.632C216.502 145.119 216.549 146.97 215.808 148.61C215.278 149.675 214.564 150.639 213.7 151.456C213.178 151.986 212.64 152.498 212.089 152.996C211.545 153.725 210.835 154.314 210.019 154.715C209.111 155.414 208.172 156.069 207.202 156.68L206.695 157.049C206.151 157.388 205.592 157.734 205.044 158.094L205.337 158.071C206.55 158.014 207.75 158.344 208.763 159.015C209.777 159.685 210.551 160.659 210.973 161.798L207.395 164.726L211.334 163.813C211.33 164.779 211.082 165.729 210.614 166.574C210.145 167.419 209.47 168.132 208.653 168.646C207.835 169.161 206.9 169.461 205.936 169.518C204.971 169.575 204.008 169.387 203.135 168.972C203.226 169.08 203.313 169.192 203.401 169.303L203.922 169.953C206.265 172.905 206.9 175.704 205.747 177.839L204.344 177.08C205.466 175.001 203.779 172.342 202.672 170.931C202.505 170.717 202.333 170.504 202.16 170.29C200.672 168.442 198.986 166.346 199.027 163.775C199.056 159.898 202.819 157.567 205.84 155.696Z" fill="#F1F1F1"/>
<path d="M177.54 151.793L176.641 151.231C176.553 151.178 176.468 151.122 176.383 151.067C178.301 150.738 180.051 149.767 181.344 148.312C182.637 146.858 183.397 145.007 183.499 143.064C183.601 141.12 183.04 139.2 181.906 137.618C180.773 136.036 179.135 134.887 177.262 134.359L177.306 137.893L175.364 134.048H175.341C174.216 133.996 173.091 134.166 172.032 134.548C170.972 134.93 169.998 135.518 169.166 136.276C168.333 137.035 167.658 137.95 167.179 138.969C166.7 139.989 166.427 141.093 166.375 142.218C166.375 142.382 166.375 142.543 166.375 142.704C165.689 141.958 165.118 141.114 164.679 140.2C163.857 138.367 163.842 136.291 163.906 133.759C164.035 128.757 164.252 123.718 164.533 118.696C166.56 118.471 168.44 117.53 169.835 116.042C171.231 114.555 172.05 112.619 172.146 110.582C172.146 110.319 172.146 110.061 172.146 109.803V109.61C172.129 109.361 172.105 109.115 172.067 108.872C172.067 108.831 172.067 108.793 172.047 108.752C172.012 108.547 171.968 108.345 171.918 108.143C171.9 108.067 171.883 107.994 171.862 107.918C171.801 107.698 171.736 107.484 171.657 107.27C171.634 107.2 171.605 107.133 171.575 107.063C171.514 106.904 171.449 106.752 171.379 106.6C171.341 106.518 171.306 106.439 171.268 106.36C171.257 106.34 171.247 106.319 171.239 106.298C170.553 104.946 169.521 103.8 168.248 102.977C166.974 102.154 165.506 101.683 163.991 101.613C163.038 101.57 162.084 101.685 161.169 101.953L161.224 106.553L159.306 102.746C157.726 103.648 156.476 105.031 155.739 106.694C155.001 108.356 154.815 110.212 155.207 111.988C155.207 112.046 155.239 112.105 155.254 112.166C155.28 112.281 155.309 112.392 155.339 112.503C155.368 112.614 155.426 112.796 155.473 112.928C155.52 113.059 155.544 113.138 155.585 113.241C155.64 113.393 155.708 113.534 155.775 113.689C155.813 113.777 155.848 113.865 155.889 113.95C155.997 114.169 156.115 114.386 156.243 114.597C156.287 114.673 156.337 114.743 156.384 114.813C156.478 114.957 156.568 115.106 156.677 115.235C156.738 115.32 156.806 115.399 156.87 115.481C156.935 115.563 157.06 115.718 157.163 115.832L157.38 116.07C157.485 116.181 157.593 116.289 157.705 116.395L157.93 116.602C158.056 116.714 158.188 116.822 158.322 116.925C158.39 116.977 158.454 117.033 158.524 117.086C158.727 117.235 158.934 117.378 159.151 117.507C159.192 117.534 159.236 117.554 159.277 117.578C159.459 117.683 159.643 117.785 159.83 117.87L160.079 117.982C160.235 118.052 160.39 118.119 160.551 118.178C160.644 118.216 160.738 118.248 160.844 118.28C161.002 118.333 161.163 118.383 161.324 118.427L161.617 118.503C161.795 118.544 161.974 118.579 162.152 118.611H162.188C162.067 120.731 161.961 122.851 161.871 124.971C161.36 123.921 160.639 122.987 159.754 122.226C158.868 121.464 157.837 120.892 156.722 120.544C155.608 120.196 154.434 120.079 153.272 120.201C152.111 120.323 150.987 120.68 149.968 121.252L151.485 125.405L148.367 122.412C147.538 123.168 146.867 124.08 146.392 125.096C145.917 126.112 145.646 127.212 145.597 128.333C145.557 129.127 145.63 129.922 145.813 130.696C146.203 132.37 147.088 133.888 148.352 135.053C149.616 136.218 151.201 136.976 152.901 137.228C154.601 137.481 156.338 137.216 157.886 136.469C159.434 135.722 160.722 134.527 161.581 133.038C161.581 133.255 161.581 133.472 161.561 133.685C161.505 135.914 161.432 138.684 162.542 141.158C163.294 142.836 164.507 144.194 165.701 145.416C166.482 146.212 167.286 146.981 168.114 147.723C168.927 148.815 169.988 149.698 171.209 150.3C172.576 151.344 173.983 152.32 175.432 153.228L176.339 153.79C177.153 154.297 177.991 154.818 178.811 155.357C178.667 155.357 178.518 155.327 178.377 155.321C176.56 155.236 174.763 155.73 173.245 156.734C171.728 157.737 170.568 159.197 169.936 160.903L175.291 165.263L169.397 163.898C169.4 165.348 169.77 166.774 170.472 168.042C171.175 169.311 172.188 170.38 173.416 171.152C174.644 171.923 176.047 172.371 177.495 172.453C178.942 172.535 180.387 172.25 181.695 171.622C181.56 171.786 181.429 171.95 181.297 172.117C181.033 172.445 180.77 172.77 180.515 173.092C177.028 177.511 176.058 181.701 177.783 184.899L179.885 183.766C178.205 180.653 180.732 176.671 182.389 174.574C182.638 174.255 182.896 173.936 183.156 173.614C185.384 170.847 187.909 167.708 187.841 163.86C187.698 158.089 182.067 154.607 177.54 151.793Z" fill="#F1F1F1"/>
<path d="M134.101 196.057C134.101 196.057 123.966 193.375 122.057 193.571C120.148 193.767 124.953 184.394 128.154 185.536C131.354 186.678 135.626 189.688 138.065 185.44C140.505 181.191 141.872 178.904 144.85 179.132C147.828 179.361 151.939 177.302 154.911 179.132C157.883 180.963 159.968 183.214 164.073 183.118C168.179 183.021 172.064 173.873 175.265 177.531C178.465 181.188 182.292 184.541 185.297 183.323C188.301 182.105 191.739 183.935 194.476 185.993C197.214 188.052 202.022 187.138 203.846 185.536C205.671 183.935 207.05 182.793 210.938 183.021C214.827 183.249 227.175 185.993 231.749 189.425C236.323 192.857 225.802 197.199 220.771 197.199C215.741 197.199 214.824 198.572 210.479 200.631C206.133 202.689 199.044 199.486 194.014 202.918C188.983 206.35 182.579 201.088 173.888 202.918C165.198 204.748 167.028 207.263 161.994 205.433C156.961 203.603 158.794 202.918 151.476 202.461C144.159 202.004 136.153 203.603 135.465 200.631C134.777 197.659 130.195 196.971 127.463 196.057C124.731 195.144 134.101 196.057 134.101 196.057Z" fill="#33404F"/>
<path d="M218.033 164.44L214.11 176.466L213.94 176.99L207.372 197.124L196.128 204.722L141.526 181.763L146.701 160.838L146.976 159.737L149.746 148.537L149.752 148.511L166.559 146.408L218.033 164.44Z" fill="#F8CE6D"/>
<path opacity="0.1" d="M218.033 164.44L207.372 197.124L196.128 204.722L206.45 169.055L149.746 148.537L149.752 148.511L166.559 146.408L218.033 164.44Z" fill="black"/>
<path opacity="0.1" d="M161.997 150.779L161.092 150.229L170.164 149.277L209.026 163.016L207.931 163.59L169.593 150.071L161.997 150.779Z" fill="black"/>
<path opacity="0.1" d="M214.11 176.465L202.76 181.803L146.976 159.736L146.701 160.837L202.535 182.588L213.94 176.989" fill="black"/>
<path d="M153.713 156.437C154.033 155.407 153.391 154.292 152.279 153.946C151.167 153.601 150.006 154.156 149.686 155.187C149.366 156.217 150.009 157.332 151.121 157.677C152.233 158.022 153.393 157.467 153.713 156.437Z" fill="#33404F"/>
<path d="M202.88 175.474C203.2 174.444 202.558 173.329 201.446 172.984C200.334 172.638 199.173 173.194 198.853 174.224C198.533 175.254 199.175 176.369 200.287 176.714C201.399 177.059 202.56 176.504 202.88 175.474Z" fill="#33404F"/>
<path d="M195.11 199.117C195.43 198.086 194.788 196.971 193.676 196.626C192.564 196.281 191.403 196.836 191.083 197.866C190.763 198.896 191.405 200.011 192.517 200.357C193.629 200.702 194.79 200.147 195.11 199.117Z" fill="#33404F"/>
<path d="M147.698 179.28C148.018 178.25 147.376 177.135 146.264 176.789C145.152 176.444 143.991 176.999 143.671 178.029C143.351 179.059 143.993 180.174 145.105 180.52C146.217 180.865 147.378 180.31 147.698 179.28Z" fill="#33404F"/>
<path d="M156.396 149.74C156.279 150.12 155.339 149.74 154.144 149.365C152.949 148.99 152.018 148.58 152.135 148.194C152.252 147.807 153.377 147.608 154.571 147.98C155.766 148.352 156.516 149.359 156.396 149.74Z" fill="#33404F"/>
<path d="M162.411 148.368C162.529 147.988 161.745 147.407 160.661 147.071C159.577 146.734 158.602 146.769 158.484 147.149C158.367 147.529 159.15 148.11 160.234 148.446C161.318 148.783 162.293 148.748 162.411 148.368Z" fill="#33404F"/>
<path d="M181.683 158.999C181.566 159.379 180.392 159.028 179.253 158.674C178.114 158.319 177.227 157.924 177.344 157.543C177.461 157.163 178.541 156.958 179.686 157.3C180.831 157.643 181.806 158.612 181.683 158.999Z" fill="#33404F"/>
<path d="M205.975 167.721C205.843 168.149 204.596 167.777 203.387 167.402C202.177 167.027 201.237 166.597 201.369 166.169C201.501 165.742 202.658 165.481 203.867 165.856C205.076 166.231 206.11 167.294 205.975 167.721Z" fill="#33404F"/>
<path d="M213.079 166.697C212.944 167.124 211.7 166.753 210.49 166.378C209.281 166.003 208.338 165.573 208.473 165.145C208.608 164.718 209.761 164.457 210.971 164.832C212.18 165.207 213.211 166.269 213.079 166.697Z" fill="#33404F"/>
<path d="M216.581 164.609C216.446 165.037 215.41 164.732 214.42 164.422C213.43 164.111 212.663 163.737 212.783 163.309C212.903 162.881 213.902 162.565 214.9 162.876C215.899 163.186 216.713 164.182 216.581 164.609Z" fill="#33404F"/>
<path d="M193.124 156.053C193.018 156.393 191.952 156.08 190.939 155.76C189.926 155.441 189.115 155.084 189.223 154.744C189.332 154.405 190.298 154.209 191.323 154.525C192.348 154.841 193.226 155.711 193.124 156.053Z" fill="#33404F"/>
<path d="M170.326 148.026C170.444 147.646 169.781 147.102 168.845 146.811C167.909 146.521 167.054 146.593 166.937 146.973C166.819 147.353 167.482 147.897 168.418 148.187C169.353 148.478 170.208 148.406 170.326 148.026Z" fill="#33404F"/>
<path opacity="0.1" d="M180.928 170.492C181.053 170.09 181.036 169.657 180.882 169.265C180.728 168.873 180.444 168.546 180.079 168.337C180.253 168.139 180.384 167.906 180.462 167.655C180.557 167.349 180.571 167.024 180.503 166.711C180.435 166.398 180.287 166.109 180.073 165.87C179.86 165.632 179.588 165.453 179.284 165.351C178.981 165.249 178.656 165.228 178.342 165.289C178.466 164.864 178.433 164.408 178.249 164.006C178.066 163.603 177.744 163.279 177.343 163.093C176.941 162.907 176.486 162.871 176.06 162.992C175.634 163.113 175.266 163.382 175.022 163.751C174.784 163.579 174.508 163.466 174.218 163.422C173.927 163.377 173.63 163.402 173.352 163.495C173.073 163.588 172.82 163.746 172.615 163.956C172.409 164.166 172.257 164.422 172.17 164.703C172.17 164.744 172.149 164.782 172.14 164.82L172.076 164.852C171.87 164.667 171.626 164.531 171.361 164.452C171.095 164.374 170.816 164.356 170.543 164.401C170.27 164.445 170.01 164.549 169.783 164.707C169.555 164.865 169.366 165.071 169.229 165.312C169.092 165.552 169.011 165.82 168.992 166.096C168.972 166.372 169.014 166.649 169.116 166.906C169.217 167.164 169.375 167.395 169.578 167.583C169.78 167.771 170.023 167.912 170.287 167.994C170.382 168.025 170.48 168.046 170.58 168.059L170.603 168.738L179.464 172.36L179.405 171.774C179.754 171.727 180.083 171.582 180.353 171.355C180.623 171.127 180.822 170.828 180.928 170.492Z" fill="black"/>
<path opacity="0.1" d="M178.858 176.307C178.668 176.684 178.356 176.984 177.973 177.159C177.589 177.334 177.158 177.374 176.749 177.271C176.74 177.534 176.673 177.792 176.553 178.026C176.444 178.244 176.293 178.437 176.109 178.596C175.925 178.755 175.712 178.877 175.481 178.953C175.25 179.029 175.006 179.06 174.764 179.042C174.521 179.024 174.284 178.958 174.067 178.849C173.796 178.712 173.562 178.511 173.385 178.263C173.178 178.653 172.838 178.956 172.427 179.117C172.017 179.279 171.562 179.288 171.145 179.143C170.728 178.999 170.376 178.71 170.153 178.329C169.93 177.948 169.851 177.5 169.93 177.066C169.726 177.038 169.528 176.976 169.344 176.884C168.906 176.664 168.573 176.279 168.419 175.813C168.264 175.347 168.301 174.84 168.521 174.401L168.58 174.293L168.556 174.226C168.288 174.217 168.025 174.15 167.786 174.029C167.346 173.806 167.013 173.418 166.859 172.949C166.706 172.481 166.745 171.97 166.968 171.53C167.191 171.09 167.579 170.757 168.048 170.603C168.517 170.45 169.027 170.489 169.467 170.712C169.554 170.755 169.637 170.805 169.716 170.861L170.202 170.39L179.115 173.953L178.667 174.334C178.883 174.611 179.015 174.944 179.049 175.293C179.083 175.642 179.016 175.994 178.858 176.307Z" fill="black"/>
<path opacity="0.1" d="M173.417 166.506L171.265 173.481C171.106 173.993 171.149 174.545 171.385 175.026C171.62 175.507 172.031 175.879 172.533 176.067C172.8 176.166 173.084 176.21 173.368 176.196C173.652 176.181 173.93 176.109 174.186 175.984C174.441 175.858 174.668 175.682 174.853 175.466C175.038 175.249 175.177 174.998 175.262 174.726L177.414 167.748C177.496 167.477 177.523 167.193 177.492 166.912C177.461 166.63 177.374 166.358 177.234 166.112C177.095 165.865 176.908 165.65 176.683 165.478C176.458 165.306 176.201 165.182 175.926 165.113C175.409 164.981 174.861 165.052 174.395 165.311C173.928 165.57 173.578 165.998 173.417 166.506Z" fill="black"/>
<path d="M173.511 166.931L171.558 173.186C171.415 173.644 171.453 174.14 171.665 174.571C171.877 175.002 172.246 175.335 172.697 175.502C172.936 175.59 173.191 175.629 173.445 175.616C173.7 175.603 173.949 175.538 174.178 175.426C174.407 175.313 174.61 175.155 174.776 174.961C174.942 174.767 175.066 174.542 175.142 174.298L177.083 168.041C177.158 167.797 177.183 167.541 177.156 167.287C177.129 167.033 177.051 166.788 176.926 166.565C176.801 166.343 176.632 166.148 176.43 165.993C176.227 165.838 175.995 165.726 175.748 165.663C175.284 165.551 174.794 165.619 174.379 165.855C173.963 166.09 173.653 166.475 173.511 166.931Z" fill="#33404F"/>
<path d="M148.05 199.258C148.05 199.258 137.916 196.575 136.007 196.775C134.098 196.974 138.903 187.595 142.103 188.74C145.304 189.885 149.576 192.889 152.015 188.64C154.454 184.391 155.822 182.107 158.8 182.336C161.778 182.564 165.889 180.506 168.861 182.336C171.833 184.166 173.918 186.415 178.023 186.318C182.128 186.221 186.014 177.074 189.217 180.734C192.421 184.394 196.245 187.741 199.249 186.526C202.254 185.311 205.691 187.138 208.426 189.196C211.161 191.255 215.975 190.338 217.796 188.74C219.617 187.141 220.997 185.993 224.885 186.221C228.774 186.45 241.122 189.196 245.696 192.625C250.269 196.054 239.751 200.403 234.718 200.403C229.684 200.403 228.774 201.773 224.428 203.831C220.083 205.89 212.991 202.689 207.96 206.118C202.93 209.547 196.526 204.291 187.835 206.118C179.145 207.945 180.975 210.464 175.944 208.636C170.913 206.809 172.741 206.118 165.423 205.661C158.106 205.205 150.1 206.806 149.415 203.831C148.73 200.856 144.159 200.174 141.412 199.258C138.666 198.341 148.05 199.258 148.05 199.258Z" fill="#33404F"/>
<path d="M234.071 191.551C234.949 189.937 233.954 187.958 232.818 186.52C231.682 185.082 230.294 183.592 230.323 181.75C230.367 179.115 233.163 177.56 235.397 176.16C237.056 175.125 238.586 173.895 239.954 172.497C240.528 171.961 241.002 171.326 241.353 170.623C241.816 169.593 241.804 168.421 241.775 167.294C241.679 163.534 241.493 159.777 241.216 156.023" stroke="#33404F" stroke-width="4" stroke-miterlimit="10"/>
<path d="M245.464 155.819C245.433 155.13 245.229 154.461 244.871 153.872C244.513 153.284 244.012 152.795 243.415 152.451L242.495 154.272L242.524 152.068C242.085 151.938 241.627 151.883 241.169 151.904C240.36 151.944 239.581 152.222 238.931 152.705C238.28 153.187 237.787 153.851 237.513 154.613C237.24 155.375 237.198 156.201 237.394 156.987C237.589 157.773 238.013 158.483 238.611 159.029C239.21 159.574 239.957 159.93 240.758 160.051C241.558 160.172 242.377 160.054 243.11 159.711C243.844 159.367 244.459 158.814 244.878 158.122C245.298 157.429 245.503 156.628 245.467 155.819H245.464Z" fill="#57B793"/>
<path d="M238.135 183.633C237.704 184.469 236.999 185.131 236.138 185.508C235.277 185.886 234.312 185.956 233.406 185.707C232.499 185.457 231.706 184.904 231.159 184.14C230.611 183.375 230.344 182.446 230.4 181.507C230.456 180.569 230.834 179.679 231.469 178.985C232.104 178.292 232.958 177.838 233.887 177.699C234.817 177.56 235.767 177.746 236.576 178.224C237.386 178.702 238.006 179.443 238.334 180.325L235.766 182.424L238.592 181.771C238.589 182.419 238.432 183.057 238.135 183.633Z" fill="#57B793"/>
<path d="M236.106 175.654C235.085 175.725 234.075 175.412 233.273 174.776C232.472 174.14 231.937 173.228 231.774 172.218C231.611 171.207 231.832 170.173 232.393 169.317C232.954 168.462 233.815 167.847 234.806 167.593L234.785 169.286L235.714 167.444C236.253 167.416 236.793 167.496 237.303 167.678C237.812 167.86 238.28 168.141 238.68 168.504C239.08 168.868 239.404 169.307 239.634 169.796C239.863 170.286 239.994 170.816 240.018 171.356C240.042 171.83 239.983 172.305 239.842 172.758C239.595 173.568 239.103 174.281 238.434 174.799C237.765 175.318 236.951 175.616 236.106 175.654Z" fill="#57B793"/>
<path d="M246.082 169.016C245.451 169.04 244.824 168.917 244.248 168.658C243.673 168.398 243.165 168.01 242.764 167.522C242.363 167.034 242.081 166.46 241.938 165.845C241.795 165.231 241.797 164.591 241.942 163.977C242.087 163.362 242.372 162.79 242.775 162.304C243.178 161.818 243.688 161.431 244.264 161.175C244.841 160.918 245.469 160.798 246.1 160.824C246.731 160.85 247.347 161.021 247.901 161.324L247.174 163.315L248.668 161.88C249.468 162.613 249.945 163.634 249.994 164.718C250.014 165.099 249.979 165.48 249.892 165.851C249.689 166.722 249.207 167.503 248.519 168.074C247.831 168.646 246.975 168.976 246.082 169.016Z" fill="#57B793"/>
<path opacity="0.1" d="M244.911 156.914C243.962 157.016 243.04 157.312 242.088 157.37C241.137 157.429 240.091 157.203 239.491 156.463C239.166 156.064 239.002 155.561 238.73 155.124C238.47 154.719 238.113 154.384 237.693 154.149C237.445 154.668 237.309 155.232 237.293 155.807C237.277 156.381 237.383 156.952 237.602 157.483C237.821 158.014 238.15 158.493 238.566 158.889C238.983 159.285 239.478 159.589 240.019 159.782C240.56 159.974 241.136 160.05 241.709 160.006C242.282 159.961 242.839 159.797 243.344 159.523C243.849 159.249 244.291 158.872 244.641 158.417C244.991 157.961 245.242 157.437 245.376 156.878C245.222 156.884 245.067 156.896 244.911 156.914Z" fill="black"/>
<path opacity="0.1" d="M246.082 169.016C245.375 169.048 244.671 168.897 244.039 168.577C243.408 168.257 242.869 167.779 242.476 167.191C242.083 166.602 241.849 165.921 241.796 165.215C241.742 164.509 241.872 163.801 242.173 163.16C242.5 163.376 242.783 163.654 243.005 163.977C243.297 164.419 243.476 164.932 243.822 165.336C244.46 166.088 245.552 166.334 246.545 166.29C247.537 166.246 248.495 165.962 249.473 165.872C249.61 165.872 249.766 165.851 249.889 165.848C249.687 166.719 249.205 167.5 248.518 168.072C247.831 168.644 246.975 168.976 246.082 169.016Z" fill="black"/>
<path opacity="0.1" d="M236.106 175.654C235.404 175.689 234.705 175.542 234.077 175.229C233.448 174.916 232.91 174.446 232.515 173.865C232.12 173.284 231.881 172.612 231.82 171.912C231.76 171.212 231.881 170.508 232.17 169.868C232.512 170.09 232.81 170.373 233.049 170.703C233.368 171.154 233.567 171.675 233.927 172.091C234.621 172.861 235.787 173.133 236.838 173.11C237.889 173.086 238.835 172.837 239.845 172.758C239.597 173.568 239.105 174.281 238.435 174.8C237.766 175.318 236.952 175.617 236.106 175.654Z" fill="black"/>
<path opacity="0.1" d="M238.135 183.633C237.691 184.626 236.87 185.402 235.853 185.79C234.836 186.178 233.707 186.146 232.714 185.702C231.72 185.257 230.944 184.436 230.556 183.419C230.169 182.403 230.2 181.274 230.645 180.28C230.983 180.503 231.286 180.774 231.544 181.086C231.936 181.56 232.194 182.102 232.645 182.55C233.485 183.375 234.841 183.721 236.05 183.747C236.747 183.751 237.443 183.712 238.135 183.633Z" fill="black"/>
<path d="M227.872 189.692C227.872 189.692 231.116 189.592 232.094 188.895C233.072 188.198 237.072 187.37 237.327 188.485C237.582 189.601 242.199 194.049 238.539 194.066C234.879 194.084 230.03 193.498 229.055 192.895C228.08 192.292 227.872 189.692 227.872 189.692Z" fill="#656380"/>
<path opacity="0.2" d="M238.612 193.68C234.949 193.709 230.103 193.094 229.128 192.508C228.384 192.054 228.089 190.432 227.989 189.683H227.881C227.881 189.683 228.086 192.3 229.052 192.904C230.018 193.507 234.873 194.095 238.536 194.075C239.593 194.075 239.956 193.691 239.939 193.135C239.784 193.463 239.391 193.671 238.612 193.68Z" fill="black"/>
<path d="M60.0857 52.4669C60.0647 52.2538 60.0959 52.0387 60.1765 51.8403C60.4137 51.4187 61.0344 51.5329 61.5029 51.6529C63.3887 52.1273 65.374 51.6968 67.3124 51.8081C69.2508 51.9194 71.4382 52.8886 71.8276 54.7919C73.2362 53.7941 74.4499 52.5466 75.4088 51.1112C75.9475 50.306 76.416 49.3836 76.3428 48.4173C76.2374 47.0235 75.0691 45.9811 73.9857 45.0968L70.7647 42.4614C70.3411 42.0712 69.8513 41.7599 69.3182 41.542C68.5744 41.2872 67.7604 41.4073 66.9757 41.4073C64.6331 41.4073 62.1237 40.3415 60.033 41.4073C59.1546 41.8553 58.5045 42.6225 57.872 43.3721L54.9907 46.7834C54.7731 47.0004 54.6148 47.2696 54.531 47.5652C54.449 47.981 54.6628 48.391 54.736 48.8097C54.8736 49.571 54.5427 50.3821 54.7975 51.1141C55.2162 52.3293 56.6891 52.5021 57.5909 53.1961C57.9277 53.4567 58.4547 54.3351 58.853 54.3263C59.5674 54.3175 60.0652 53.0262 60.0857 52.4669Z" fill="#33404F"/>
<path d="M60.5601 60.6123C60.5279 61.5611 59.9744 62.4044 59.4415 63.192C58.73 64.2403 57.9774 65.3296 56.853 65.9152C62.5041 68.899 69.0868 69.5931 75.236 67.8537C76.2228 67.5609 77.3882 66.9518 77.3296 65.924C76.1584 65.6049 74.9461 65.274 73.9505 64.5683C72.7617 63.725 71.9769 62.4132 71.4704 61.0545C70.9638 59.6958 70.7061 58.2435 70.3518 56.8292C70.3286 56.6841 70.2658 56.5483 70.1703 56.4368C70.0091 56.3214 69.8111 56.2693 69.6139 56.2904L65.7136 56.2201C64.1119 56.2201 62.3726 56.182 60.8851 56.8614C59.0345 57.7105 60.6128 59.037 60.5601 60.6123Z" fill="#FFC0C6"/>
<path opacity="0.1" d="M60.5601 60.6123C60.5279 61.5611 59.9744 62.4044 59.4415 63.192C58.73 64.2403 57.9774 65.3296 56.853 65.9152C62.5041 68.899 69.0868 69.5931 75.236 67.8537C76.2228 67.5609 77.3882 66.9518 77.3296 65.924C76.1584 65.6049 74.9461 65.274 73.9505 64.5683C72.7617 63.725 71.9769 62.4132 71.4704 61.0545C70.9638 59.6958 70.7061 58.2435 70.3518 56.8292C70.3286 56.6841 70.2658 56.5483 70.1703 56.4368C70.0091 56.3214 69.8111 56.2693 69.6139 56.2904L65.7136 56.2201C64.1119 56.2201 62.3726 56.182 60.8851 56.8614C59.0345 57.7105 60.6128 59.037 60.5601 60.6123Z" fill="black"/>
<path d="M57.1664 194.207C56.206 195.671 54.9498 196.909 53.8957 198.306C52.8415 199.703 51.9601 201.331 51.9484 203.079C51.9344 203.19 51.9453 203.303 51.9803 203.409C52.0152 203.516 52.0733 203.613 52.1505 203.694C52.2704 203.771 52.409 203.815 52.5516 203.82L56.6218 204.341C57.2405 204.449 57.8711 204.47 58.4958 204.405C59.1683 204.273 59.8163 204.037 60.4166 203.706C60.8754 203.526 61.2749 203.222 61.5703 202.827C61.7665 202.505 61.8192 202.11 62.0066 201.782C62.5718 200.789 63.9948 200.833 65.1251 201.006C65.4501 197.987 64.6156 194.977 63.787 192.054C63.7512 191.875 63.674 191.707 63.5615 191.563C63.4135 191.42 63.2308 191.319 63.0315 191.27C62.0564 190.951 59.6993 189.7 58.8794 190.286C58.2791 190.719 57.6525 193.431 57.1664 194.207Z" fill="#575A88"/>
<path d="M76.7908 200.16C77.5726 199.794 78.4072 199.323 79.2505 199.516C80.4393 199.783 80.9693 201.188 81.9795 201.859C82.6003 202.277 83.3675 202.4 84.1083 202.497C86.3898 202.792 88.6891 202.928 90.9894 202.904C91.7244 202.904 92.6497 202.728 92.8283 202.026C93.0069 201.323 92.3305 200.764 91.7303 200.397C90.4273 199.598 89.0691 198.893 87.666 198.286C86.9763 198.032 86.3242 197.685 85.7276 197.256C84.7232 196.444 84.2342 195.174 83.7862 193.964C83.426 192.992 83.0951 190.893 82.3572 190.158C81.5491 189.364 80.4627 189.891 79.4496 190.114C77.8742 190.459 76.0295 190.699 75.0164 192.114C73.5347 194.184 72.3957 202.195 76.7908 200.16Z" fill="#575A88"/>
<path d="M53.5091 106.719C52.164 110.03 51.4241 113.554 51.3247 117.126C51.2544 119.794 51.5414 122.452 51.8313 125.105C52.2939 129.4 52.7585 133.695 53.2251 137.989C53.3741 139.775 53.655 141.548 54.0654 143.292C54.572 145.239 55.3948 147.099 55.9834 149.014C57.8047 154.981 57.2864 161.417 56.0829 167.54C55.9228 168.212 55.8383 168.899 55.8311 169.59C55.8663 170.623 56.2645 171.607 56.5222 172.609C58.0975 178.714 54.4725 185.493 56.8384 191.349C56.8985 191.558 57.0301 191.739 57.2103 191.861C57.3291 191.906 57.4557 191.926 57.5825 191.92C57.7093 191.915 57.8337 191.884 57.9482 191.829C58.6222 191.594 59.2691 191.288 59.8778 190.916C61.1524 192.458 62.7991 193.65 64.6624 194.38C66.0504 194.037 66.311 192.35 66.7649 190.995C67.1109 190.031 67.3926 189.046 67.6082 188.046C67.8089 186.818 67.9117 185.577 67.9156 184.333L69.1162 142.065L69.0283 154.964C68.9864 156.008 69.0521 157.054 69.2245 158.085C69.4002 158.943 69.7223 159.766 69.9068 160.624C70.1674 161.851 70.1352 163.121 70.1234 164.378C70.0504 171.828 70.7323 179.266 72.1585 186.579C72.627 188.974 73.1892 191.393 74.3868 193.516C74.4263 193.613 74.4853 193.701 74.5604 193.775C74.6355 193.849 74.7249 193.906 74.8231 193.943C75.0779 193.999 75.3121 193.797 75.5054 193.618C76.6622 192.596 78.1077 191.957 79.6427 191.79C81.1777 191.623 82.7267 191.937 84.0761 192.687C83.8184 191.446 85.0014 190.002 84.1552 189.059C83.9121 188.787 83.549 188.655 83.2767 188.418C82.7379 187.958 82.6091 187.185 82.533 186.479C82.2006 183.338 82.2006 180.171 82.533 177.03C82.9458 173.104 83.8741 169.145 83.1889 165.259C82.6911 162.439 81.35 159.696 81.6164 156.858C81.7921 154.955 82.6764 153.201 83.2855 151.388C85.9443 143.465 83.2855 134.633 85.2093 126.499C85.6514 124.631 86.3191 122.61 85.5168 120.868L86.7378 120.496L84.202 114.707C83.6632 113.475 83.101 112.207 82.1523 111.258C80.5594 109.674 78.1788 109.249 75.9563 108.915L57.8779 106.096C56.2762 105.835 54.1152 105.232 53.5091 106.719Z" fill="#3C354C"/>
<path d="M64.8908 60.572C69.165 60.572 72.63 57.1071 72.63 52.8329C72.63 48.5587 69.165 45.0938 64.8908 45.0938C60.6167 45.0938 57.1517 48.5587 57.1517 52.8329C57.1517 57.1071 60.6167 60.572 64.8908 60.572Z" fill="#FFC0C6"/>
<path d="M60.6714 62.0476C60.296 61.8255 59.8527 61.7474 59.424 61.828C59.2132 61.903 59.0156 62.0107 58.8384 62.1471L55.1782 64.7122C54.6534 65.038 54.1856 65.4475 53.7932 65.9245C53.1665 66.7766 53.067 67.9097 53.149 68.9639C53.3305 71.3415 54.2909 73.5845 54.8121 75.9095C55.3334 78.2344 55.3334 80.8873 53.8341 82.7496C53.5763 83.0168 53.361 83.3219 53.1958 83.6544C53.1065 83.9384 53.0659 84.2354 53.0758 84.5329C53.0215 85.6459 53.045 86.7613 53.146 87.871C53.31 89.3028 53.7317 90.6937 53.9601 92.1139C54.3612 94.5325 54.2529 97.0127 54.5633 99.4343C54.5494 99.5962 54.5695 99.7593 54.6221 99.9131C54.6748 100.067 54.7589 100.208 54.869 100.328C54.9792 100.447 55.113 100.542 55.262 100.607C55.4111 100.672 55.572 100.706 55.7345 100.705C57.5444 100.97 59.3724 101.09 61.2014 101.065C63.3184 101.065 65.4326 100.948 67.5467 100.837L77.1686 100.33C77.3057 100.348 77.4449 100.335 77.5766 100.294C77.7083 100.252 77.8292 100.182 77.931 100.088C78.0328 99.9948 78.113 99.8803 78.1659 99.7527C78.2188 99.625 78.2432 99.4874 78.2374 99.3493C79.0807 95.3026 79.9299 91.1827 79.5316 87.0716C79.274 84.4158 78.5009 81.8419 77.7747 79.2768C77.1891 77.1979 76.6269 75.0164 77.0661 72.8993C77.3589 71.5026 78.0705 70.2113 78.255 68.7999C78.3616 68.0654 78.2977 67.3162 78.0681 66.6104C77.8386 65.9046 77.4497 65.2611 76.9314 64.7298C75.8539 63.6961 74.2815 63.3038 73.2068 62.2672C72.9117 61.932 72.5906 61.6206 72.2464 61.336C72.0708 61.196 71.8594 61.1081 71.6363 61.0822C71.4132 61.0563 71.1873 61.0936 70.9844 61.1896C70.7862 61.3301 70.6222 61.5132 70.5041 61.7255C69.5671 63.1486 68.1616 65.494 66.1851 65.1251C64.0476 64.7415 62.5542 62.9553 60.6714 62.0476Z" fill="#53D258"/>
<path d="M80.0089 114.368C79.3237 114.88 78.8142 115.791 79.1304 116.584C80.0613 116.75 81.0208 116.617 81.8712 116.204C82.4187 115.937 83.101 115.562 83.5754 115.949C83.729 116.097 83.848 116.277 83.9238 116.476C84.4369 117.564 85.0589 118.597 85.7803 119.559C86.3015 119.313 86.849 119.044 87.1624 118.561C87.3514 118.232 87.4738 117.868 87.5225 117.492C87.7063 116.55 87.8421 115.599 87.9295 114.643C87.991 113.949 88.0027 113.179 87.5284 112.664C85.4933 110.467 81.6984 113.106 80.0089 114.368Z" fill="#FFC0C6"/>
<path d="M59.6026 49.5617C59.5817 49.3495 59.6129 49.1354 59.6934 48.938C59.9306 48.5163 60.5513 48.6452 61.0198 48.7476C62.9056 49.2249 64.8909 48.7945 66.8293 48.9058C68.7677 49.017 70.9551 49.9863 71.3445 51.8896C72.7534 50.8912 73.968 49.6438 74.9286 48.2089C75.4674 47.4036 75.9359 46.4813 75.8627 45.515C75.7572 44.1212 74.5889 43.0787 73.5055 42.1944L70.2845 39.5591C69.8609 39.1698 69.371 38.8594 68.838 38.6426C68.0943 38.3878 67.2802 38.5079 66.4955 38.5079C64.153 38.5079 61.6435 37.442 59.5528 38.5079C58.6744 38.9588 58.0243 39.726 57.3889 40.4756L54.5105 43.8869C54.2931 44.1034 54.1339 44.3713 54.0479 44.6658C53.9659 45.0816 54.1797 45.4945 54.2558 45.9103C54.3905 46.6716 54.0625 47.4856 54.3144 48.2177C54.7331 49.4328 56.2089 49.6027 57.1108 50.2996C57.4475 50.5602 57.9716 51.4386 58.3728 51.4269C59.0843 51.4152 59.5821 50.1239 59.6026 49.5617Z" fill="#33404F"/>
<path d="M78.7146 65.2593C79.5249 65.068 80.366 65.0473 81.1847 65.1985C82.0033 65.3497 82.7816 65.6696 83.47 66.1378C85.6836 67.6546 86.5943 70.4246 87.3644 72.9955L89.0891 78.761C89.8445 81.288 90.6059 83.8385 90.7816 86.4709C90.9426 88.8632 90.6147 91.2584 90.2867 93.6331C89.8328 96.9215 90.9016 100.526 90.9163 103.844C90.9163 107.65 90.8928 111.688 88.9544 114.971C88.8739 114.683 88.7255 114.42 88.5216 114.202C88.3177 113.985 88.0644 113.819 87.7831 113.72C87.2221 113.529 86.6337 113.43 86.0409 113.427L80.8873 113.097C81.3265 112.355 81.7045 111.578 82.0176 110.775C83.9941 105.697 83.2357 100.022 82.448 94.6346C82.3859 94.1208 82.2881 93.612 82.1552 93.1119C81.6357 91.1899 81.5171 89.1815 81.8068 87.2117C81.9247 86.3208 81.9551 85.4205 81.8975 84.5237C81.8886 84.145 81.8081 83.7714 81.6604 83.4227C81.5087 83.1357 81.3175 82.8716 81.0923 82.6379L80.0499 81.4667C79.965 77.9236 79.4086 74.3542 78.8581 70.8521C78.5909 68.9999 78.5428 67.1228 78.7146 65.2593Z" fill="#53D258"/>
<path d="M68.5891 80.9054C63.5834 77.0212 60.2488 71.3731 59.2658 65.1138C59.096 64.0041 58.6539 62.5546 57.5324 62.5927C57.1927 62.6287 56.8659 62.743 56.5778 62.9265L52.5135 65.1051C52.2229 65.2231 51.9756 65.4275 51.8049 65.6907C51.5384 66.2119 51.9162 66.8122 52.2412 67.2982C54.4285 70.6071 54.5837 74.809 54.6716 78.7737C54.6979 79.9449 54.7067 81.1777 54.1416 82.2026C53.6819 83.0312 52.8825 83.6403 52.4608 84.4924C52.0655 85.2917 52.0479 86.217 52.0362 87.1101C51.9542 93.4818 51.8722 99.8623 52.2061 106.228C52.2558 107.188 52.332 108.196 52.8444 109.01C53.3217 109.762 54.1094 110.248 54.8707 110.708L61.0344 114.433C62.2057 115.144 63.4238 115.868 64.7796 116.096C66.1353 116.324 67.6843 115.938 68.4632 114.805C68.8409 114.254 69.0078 113.584 69.3709 113.024C69.734 112.465 70.428 112.011 71.0458 112.26C71.485 112.436 71.7251 112.895 71.9243 113.32C72.3166 114.131 72.7266 114.963 73.3678 115.598C74.0091 116.234 74.9373 116.661 75.8187 116.477C76.58 116.31 77.1744 115.733 77.722 115.182C79.4145 113.487 81.1245 111.768 82.369 109.715C82.5481 109.477 82.641 109.185 82.6325 108.887C82.5526 108.597 82.3958 108.334 82.1787 108.126C81.3998 107.171 81.0923 105.921 80.861 104.708C78.5448 92.5272 81.8156 79.8659 80.0147 67.5969C79.8098 66.1914 79.3588 64.9001 78.3047 63.9484C77.2506 62.9968 75.9388 62.3907 74.6474 61.7992C74.2229 61.6059 73.7368 61.4068 73.3034 61.5825C72.586 61.8753 72.5831 62.8621 72.6358 63.6322C72.6968 65.2104 72.6184 66.7909 72.4015 68.3553L71.772 74.1501C71.7118 75.0352 71.5467 75.9101 71.2801 76.7562C70.7264 78.3339 69.8038 79.7564 68.5891 80.9054Z" fill="#575A88"/>
<path d="M32.687 34.8655C32.687 34.8655 30.4528 36.681 27.8145 31.9198C25.1763 27.1586 12.4359 15.7154 12.4359 15.7154C12.4359 15.7154 10.7873 14.2074 17.0506 11.6951C23.314 9.18269 31.8671 0 31.8671 0C31.8671 0 46.1389 12.6877 47.5357 18.9715C48.9324 25.2553 45.8754 26.3212 40.6281 29.6593C35.3809 32.9974 32.687 34.8655 32.687 34.8655Z" fill="#33404F"/>
<path d="M73.5904 95.6305L37.5741 30.7221L40.6311 29.6592L76.0383 94.2865C76.1274 94.4503 76.183 94.6302 76.2018 94.8157C76.2205 95.0012 76.2021 95.1886 76.1475 95.3669C76.093 95.5452 76.0035 95.7109 75.8842 95.8542C75.7649 95.9975 75.6182 96.1156 75.4527 96.2015C75.1291 96.3676 74.7534 96.4008 74.4056 96.2942C74.0578 96.1876 73.7653 95.9495 73.5904 95.6305Z" fill="#656380"/>
<path d="M58.8002 79.0599C59.7431 77.0424 58.7768 74.7145 58.1326 72.5828C57.6194 70.8887 57.3136 69.1385 57.2219 67.3707C57.1606 66.8145 57.2225 66.2517 57.4035 65.7222C57.4992 65.4596 57.6681 65.2299 57.8902 65.0602C58.1122 64.8906 58.3782 64.788 58.6567 64.7646C59.4976 66.0225 59.8333 67.5512 59.5967 69.0456C60.1423 68.905 60.6957 68.7964 61.254 68.7206C61.9779 68.6233 62.7129 68.7847 63.3295 69.1763C63.946 69.5678 64.4046 70.1645 64.6243 70.8611C65.5525 73.8361 65.8688 77.0102 64.5745 79.7919C64.1619 80.6152 63.6831 81.4035 63.1427 82.1491L60.3199 86.2719C60.1267 86.5648 59.8895 86.8576 59.5498 86.9074C59.2102 86.9571 58.8559 86.6497 58.607 86.3657C57.749 85.3964 56.2264 83.9851 56.3933 82.6498C56.5602 81.3146 58.238 80.2458 58.8002 79.0599Z" fill="#FFC0C6"/>
<path d="M52.2763 66.6239C49.4097 66.2988 46.1272 67.0748 44.628 69.552C43.8754 70.8023 43.688 72.3015 43.5563 73.7539C43.3718 75.789 43.2635 77.8299 43.161 79.8679L42.6076 90.5967C42.5402 91.8792 42.4758 93.1646 42.4524 94.4472C42.3857 95.4498 42.4937 96.4565 42.7715 97.4222C43.1258 98.4617 43.8286 99.3401 44.5284 100.195C45.2283 101.05 46.1038 101.932 47.1316 101.683C47.5522 101.544 47.9343 101.308 48.2472 100.995L50.5897 98.9682C52.1826 97.6008 53.7931 96.2129 55.0054 94.497C55.591 93.6712 56.0712 92.7781 56.6627 91.9582C58.402 89.5454 61.0784 87.7153 61.9949 84.8868C61.1164 84.8399 59.8397 84.55 59.4357 83.7711C59.2219 83.3583 59.1926 82.8663 58.9554 82.471C58.5953 81.8678 57.7842 81.5399 57.6641 80.8488C55.3626 82.7023 53.4359 84.8545 51.597 87.1649L52.3437 84.2631C52.396 83.9905 52.5091 83.7333 52.6746 83.5105C52.9365 83.2811 53.233 83.0943 53.553 82.9571C54.4637 82.4066 54.8092 81.2676 54.9937 80.2193C55.8169 75.5071 54.8476 70.6575 52.2763 66.6239Z" fill="#53D258"/>
</g>
<defs>
<clipPath id="clip0_496_2015">
<rect width="250" height="212.584" fill="white"/>
</clipPath>
</defs>
</svg>
