<svg width="39" height="44" viewBox="0 0 39 44" fill="none" xmlns="http://www.w3.org/2000/svg">
<path d="M17.9999 15.9334C19.6281 15.9334 20.9481 14.6135 20.9481 12.9853C20.9481 11.357 19.6281 10.0371 17.9999 10.0371C16.3717 10.0371 15.0518 11.357 15.0518 12.9853C15.0518 14.6135 16.3717 15.9334 17.9999 15.9334Z" stroke="#53D258" stroke-width="1.5" stroke-miterlimit="10"/>
<path d="M26.1479 16.3559C26.1479 17.2505 25.793 18.1085 25.1612 18.7418C24.5293 19.375 23.672 19.7318 22.7775 19.7337H13.2219C12.3274 19.7318 11.4701 19.375 10.8383 18.7418C10.2064 18.1085 9.85156 17.2505 9.85156 16.3559V12.4152C9.85374 11.5216 10.2077 10.6647 10.8367 10.03L15.6145 5.25964C15.9276 4.94608 16.2994 4.69732 16.7086 4.5276C17.1179 4.35787 17.5566 4.27051 17.9997 4.27051C18.4428 4.27051 18.8815 4.35787 19.2908 4.5276C19.7001 4.69732 20.0719 4.94608 20.3849 5.25964L25.1627 10.03C25.7918 10.6647 26.1457 11.5216 26.1479 12.4152V16.3559Z" stroke="#53D258" stroke-width="1.5" stroke-miterlimit="10"/>
<path d="M5.832 40.06C5.4 40.06 5.016 40 4.68 39.88C4.352 39.752 4.088 39.54 3.888 39.244C3.696 38.94 3.588 38.52 3.564 37.984L3.372 33.808H4.344L4.536 37.768C4.56 38.144 4.628 38.428 4.74 38.62C4.852 38.804 5.008 38.928 5.208 38.992C5.416 39.048 5.664 39.076 5.952 39.076C6.12 39.076 6.24 39.124 6.312 39.22C6.392 39.308 6.432 39.416 6.432 39.544C6.432 39.672 6.376 39.792 6.264 39.904C6.152 40.008 6.008 40.06 5.832 40.06ZM4.02 38.74C3.564 38.884 3.12 38.956 2.688 38.956C2.256 38.956 1.864 38.892 1.512 38.764C1.16 38.636 0.88 38.452 0.672 38.212C0.464 37.964 0.36 37.668 0.36 37.324C0.36 36.988 0.444 36.672 0.612 36.376C0.788 36.08 1.024 35.816 1.32 35.584C1.624 35.352 1.972 35.16 2.364 35.008C2.764 34.848 3.188 34.74 3.636 34.684L3.804 35.692C3.404 35.708 3.048 35.764 2.736 35.86C2.432 35.948 2.172 36.064 1.956 36.208C1.748 36.352 1.588 36.508 1.476 36.676C1.364 36.844 1.308 37.008 1.308 37.168C1.308 37.344 1.372 37.488 1.5 37.6C1.628 37.712 1.792 37.8 1.992 37.864C2.192 37.92 2.412 37.956 2.652 37.972C2.892 37.98 3.124 37.972 3.348 37.948C3.572 37.916 3.764 37.872 3.924 37.816L4.02 38.74ZM3.768 32.428C3.6 32.428 3.456 32.372 3.336 32.26C3.224 32.14 3.168 32 3.168 31.84C3.168 31.68 3.224 31.54 3.336 31.42C3.456 31.3 3.6 31.24 3.768 31.24C3.928 31.24 4.064 31.3 4.176 31.42C4.296 31.54 4.356 31.68 4.356 31.84C4.356 32 4.296 32.14 4.176 32.26C4.064 32.372 3.928 32.428 3.768 32.428ZM2.124 32.428C1.956 32.428 1.812 32.372 1.692 32.26C1.58 32.14 1.524 32 1.524 31.84C1.524 31.68 1.58 31.54 1.692 31.42C1.812 31.3 1.956 31.24 2.124 31.24C2.284 31.24 2.42 31.3 2.532 31.42C2.652 31.54 2.712 31.68 2.712 31.84C2.712 32 2.652 32.14 2.532 32.26C2.42 32.372 2.284 32.428 2.124 32.428ZM5.83594 40.06L5.95594 39.076C6.35594 39.076 6.66794 39.048 6.89194 38.992C7.11594 38.928 7.28394 38.812 7.39594 38.644C7.51594 38.468 7.61194 38.216 7.68394 37.888C7.75594 37.56 7.84394 37.132 7.94794 36.604L8.88394 36.784C8.85194 36.928 8.81594 37.088 8.77594 37.264C8.73594 37.44 8.69994 37.616 8.66794 37.792C8.64394 37.96 8.63194 38.108 8.63194 38.236C8.63194 38.356 8.63994 38.468 8.65594 38.572C8.67194 38.676 8.73194 38.764 8.83594 38.836C8.93994 38.908 9.11594 38.968 9.36394 39.016C9.61194 39.056 9.96794 39.076 10.4319 39.076C10.5999 39.076 10.7199 39.124 10.7919 39.22C10.8719 39.308 10.9119 39.416 10.9119 39.544C10.9119 39.672 10.8559 39.792 10.7439 39.904C10.6319 40.008 10.4879 40.06 10.3119 40.06C9.82394 40.06 9.43594 40.036 9.14794 39.988C8.85994 39.932 8.63994 39.852 8.48794 39.748C8.34394 39.644 8.23994 39.516 8.17594 39.364C8.11994 39.204 8.07594 39.02 8.04394 38.812L8.40394 38.836C8.27594 39.092 8.13594 39.3 7.98394 39.46C7.83994 39.62 7.67194 39.744 7.47994 39.832C7.28794 39.92 7.05594 39.98 6.78394 40.012C6.51994 40.044 6.20394 40.06 5.83594 40.06ZM8.85994 42.328C8.69194 42.328 8.54794 42.268 8.42794 42.148C8.31594 42.036 8.25994 41.9 8.25994 41.74C8.25994 41.58 8.31594 41.44 8.42794 41.32C8.54794 41.2 8.69194 41.14 8.85994 41.14C9.01994 41.14 9.15594 41.2 9.26794 41.32C9.38794 41.44 9.44794 41.58 9.44794 41.74C9.44794 41.9 9.38794 42.036 9.26794 42.148C9.15594 42.268 9.01994 42.328 8.85994 42.328ZM7.21594 42.328C7.04794 42.328 6.90394 42.268 6.78394 42.148C6.67194 42.036 6.61594 41.9 6.61594 41.74C6.61594 41.58 6.67194 41.44 6.78394 41.32C6.90394 41.2 7.04794 41.14 7.21594 41.14C7.37594 41.14 7.51194 41.2 7.62394 41.32C7.74394 41.44 7.80394 41.58 7.80394 41.74C7.80394 41.9 7.74394 42.036 7.62394 42.148C7.51194 42.268 7.37594 42.328 7.21594 42.328ZM10.3125 40.06L10.4325 39.076C10.6885 39.076 10.8965 39.06 11.0565 39.028C11.2165 38.988 11.3485 38.896 11.4525 38.752C11.5645 38.6 11.6685 38.364 11.7645 38.044C11.8605 37.724 11.9725 37.276 12.1005 36.7L13.0005 36.952C12.9525 37.152 12.8965 37.392 12.8325 37.672C12.7685 37.952 12.7365 38.208 12.7365 38.44C12.7365 38.568 12.7685 38.68 12.8325 38.776C12.8965 38.872 13.0045 38.948 13.1565 39.004C13.3165 39.052 13.5285 39.076 13.7925 39.076C14.0325 39.076 14.2285 39.056 14.3805 39.016C14.5325 38.976 14.6565 38.88 14.7525 38.728C14.8565 38.576 14.9485 38.332 15.0285 37.996C15.1085 37.66 15.1925 37.2 15.2805 36.616L16.1925 36.784C16.1685 36.928 16.1405 37.104 16.1085 37.312C16.0765 37.52 16.0445 37.728 16.0125 37.936C15.9885 38.136 15.9765 38.304 15.9765 38.44C15.9765 38.552 16.0005 38.66 16.0485 38.764C16.1045 38.86 16.2085 38.936 16.3605 38.992C16.5205 39.048 16.7565 39.076 17.0685 39.076C17.4685 39.076 17.7565 38.992 17.9325 38.824C18.1165 38.656 18.2085 38.4 18.2085 38.056C18.2085 37.872 18.2045 37.68 18.1965 37.48C18.1885 37.272 18.1725 37.044 18.1485 36.796C18.1325 36.54 18.1045 36.248 18.0645 35.92L18.9405 35.86C18.9885 36.508 19.0405 37.04 19.0965 37.456C19.1605 37.872 19.2485 38.2 19.3605 38.44C19.4805 38.672 19.6405 38.836 19.8405 38.932C20.0405 39.028 20.3045 39.076 20.6325 39.076C20.8005 39.076 20.9205 39.124 20.9925 39.22C21.0725 39.308 21.1125 39.416 21.1125 39.544C21.1125 39.672 21.0565 39.792 20.9445 39.904C20.8325 40.008 20.6885 40.06 20.5125 40.06C20.2405 40.06 19.9965 40.024 19.7805 39.952C19.5725 39.872 19.3885 39.768 19.2285 39.64C19.0765 39.504 18.9485 39.352 18.8445 39.184C18.7485 39.008 18.6805 38.824 18.6405 38.632L18.8565 38.704C18.7685 39.064 18.6285 39.344 18.4365 39.544C18.2525 39.736 18.0325 39.872 17.7765 39.952C17.5205 40.024 17.2485 40.06 16.9605 40.06C16.6085 40.06 16.3205 40.016 16.0965 39.928C15.8725 39.84 15.6965 39.708 15.5685 39.532C15.4485 39.348 15.3685 39.116 15.3285 38.836H15.7365C15.5845 39.18 15.4245 39.44 15.2565 39.616C15.0885 39.792 14.8805 39.912 14.6325 39.976C14.3845 40.032 14.0565 40.06 13.6485 40.06C13.4485 40.06 13.2325 40.028 13.0005 39.964C12.7765 39.9 12.5805 39.776 12.4125 39.592C12.2445 39.4 12.1445 39.116 12.1125 38.74L12.4725 38.668C12.3365 39.076 12.1685 39.38 11.9685 39.58C11.7765 39.772 11.5445 39.9 11.2725 39.964C11.0005 40.028 10.6805 40.06 10.3125 40.06ZM20.5078 40.06L20.6278 39.076C21.0278 39.076 21.3398 39.048 21.5638 38.992C21.7878 38.928 21.9558 38.812 22.0678 38.644C22.1878 38.468 22.2838 38.216 22.3558 37.888C22.4278 37.56 22.5158 37.132 22.6198 36.604L23.5558 36.784C23.5238 36.928 23.4878 37.088 23.4478 37.264C23.4078 37.44 23.3718 37.616 23.3398 37.792C23.3158 37.96 23.3038 38.108 23.3038 38.236C23.3038 38.356 23.3118 38.468 23.3278 38.572C23.3438 38.676 23.4038 38.764 23.5078 38.836C23.6118 38.908 23.7878 38.968 24.0358 39.016C24.2838 39.056 24.6398 39.076 25.1038 39.076C25.2718 39.076 25.3918 39.124 25.4638 39.22C25.5438 39.308 25.5838 39.416 25.5838 39.544C25.5838 39.672 25.5278 39.792 25.4158 39.904C25.3038 40.008 25.1598 40.06 24.9838 40.06C24.4958 40.06 24.1078 40.036 23.8198 39.988C23.5318 39.932 23.3118 39.852 23.1598 39.748C23.0158 39.644 22.9118 39.516 22.8478 39.364C22.7918 39.204 22.7478 39.02 22.7158 38.812L23.0758 38.836C22.9478 39.092 22.8078 39.3 22.6558 39.46C22.5118 39.62 22.3438 39.744 22.1518 39.832C21.9598 39.92 21.7278 39.98 21.4558 40.012C21.1918 40.044 20.8758 40.06 20.5078 40.06ZM23.5318 42.328C23.3638 42.328 23.2198 42.268 23.0998 42.148C22.9878 42.036 22.9318 41.9 22.9318 41.74C22.9318 41.58 22.9878 41.44 23.0998 41.32C23.2198 41.2 23.3638 41.14 23.5318 41.14C23.6918 41.14 23.8278 41.2 23.9398 41.32C24.0598 41.44 24.1198 41.58 24.1198 41.74C24.1198 41.9 24.0598 42.036 23.9398 42.148C23.8278 42.268 23.6918 42.328 23.5318 42.328ZM21.8878 42.328C21.7198 42.328 21.5758 42.268 21.4558 42.148C21.3438 42.036 21.2878 41.9 21.2878 41.74C21.2878 41.58 21.3438 41.44 21.4558 41.32C21.5758 41.2 21.7198 41.14 21.8878 41.14C22.0478 41.14 22.1838 41.2 22.2958 41.32C22.4158 41.44 22.4758 41.58 22.4758 41.74C22.4758 41.9 22.4158 42.036 22.2958 42.148C22.1838 42.268 22.0478 42.328 21.8878 42.328ZM24.9844 40.06L25.1044 39.076C25.4964 39.076 25.8084 39.052 26.0404 39.004C26.2724 38.956 26.4404 38.86 26.5444 38.716C26.6484 38.564 26.7004 38.34 26.7004 38.044C26.7004 37.844 26.6684 37.608 26.6044 37.336C26.5404 37.056 26.4564 36.76 26.3524 36.448C26.2484 36.136 26.1364 35.828 26.0164 35.524L26.9884 35.164C27.0924 35.42 27.1884 35.712 27.2764 36.04C27.3724 36.368 27.4524 36.692 27.5164 37.012C27.5804 37.332 27.6124 37.612 27.6124 37.852C27.6124 38.172 27.5764 38.456 27.5044 38.704C27.4404 38.944 27.3404 39.152 27.2044 39.328C27.0684 39.496 26.8924 39.636 26.6764 39.748C26.4684 39.852 26.2244 39.932 25.9444 39.988C25.6644 40.036 25.3444 40.06 24.9844 40.06ZM25.4284 33.832L25.2844 33.184C25.4924 33.136 25.6604 33.096 25.7884 33.064C25.9164 33.032 26.0604 32.996 26.2204 32.956L26.1604 33.208C25.9524 33.144 25.7524 33.008 25.5604 32.8C25.3764 32.592 25.2844 32.356 25.2844 32.092C25.2844 31.852 25.3404 31.652 25.4524 31.492C25.5724 31.324 25.7244 31.2 25.9084 31.12C26.1004 31.04 26.3044 31 26.5204 31C26.6084 31 26.7004 31.008 26.7964 31.024C26.9004 31.04 26.9964 31.064 27.0844 31.096L26.9884 31.696C26.9084 31.68 26.8324 31.664 26.7604 31.648C26.6884 31.632 26.6084 31.624 26.5204 31.624C26.3364 31.624 26.1924 31.664 26.0884 31.744C25.9844 31.816 25.9324 31.92 25.9324 32.056C25.9324 32.224 25.9844 32.368 26.0884 32.488C26.2004 32.608 26.3244 32.704 26.4604 32.776C26.6044 32.84 26.7204 32.872 26.8084 32.872L26.3164 32.92C26.5324 32.864 26.7324 32.808 26.9164 32.752C27.1084 32.688 27.2804 32.628 27.4324 32.572L27.6244 33.184C27.4324 33.256 27.2044 33.332 26.9404 33.412C26.6844 33.492 26.4244 33.568 26.1604 33.64C25.8964 33.712 25.6524 33.776 25.4284 33.832ZM27.8918 42.784L27.5437 41.872C28.1278 41.68 28.6118 41.46 28.9958 41.212C29.3878 40.964 29.6958 40.7 29.9198 40.42C30.1518 40.14 30.3158 39.856 30.4118 39.568C30.5078 39.272 30.5558 38.988 30.5558 38.716C30.5558 38.324 30.4678 37.928 30.2918 37.528C30.1238 37.12 29.9358 36.736 29.7278 36.376L30.6038 35.932C30.7558 36.212 30.8878 36.488 30.9998 36.76C31.1198 37.032 31.2238 37.288 31.3118 37.528C31.4078 37.768 31.4838 37.988 31.5398 38.188C31.6518 38.532 31.7958 38.768 31.9718 38.896C32.1558 39.016 32.4038 39.076 32.7158 39.076C32.8838 39.076 33.0038 39.124 33.0758 39.22C33.1558 39.308 33.1958 39.416 33.1958 39.544C33.1958 39.672 33.1398 39.792 33.0278 39.904C32.9158 40.008 32.7718 40.06 32.5958 40.06C32.2438 40.06 31.9558 40 31.7318 39.88C31.5158 39.752 31.3518 39.588 31.2398 39.388C31.1278 39.18 31.0518 38.964 31.0117 38.74L31.3958 38.956C31.3958 39.484 31.2758 39.964 31.0358 40.396C30.8038 40.836 30.5038 41.216 30.1358 41.536C29.7678 41.864 29.3838 42.132 28.9838 42.34C28.5838 42.548 28.2198 42.696 27.8918 42.784ZM32.6016 40.06L32.7096 39.076C33.1656 39.076 33.4856 39.032 33.6696 38.944C33.8536 38.856 33.9576 38.7 33.9816 38.476C34.0136 38.252 34.0216 37.94 34.0056 37.54L33.7776 31.432H34.7496L34.9896 37.432C35.0056 37.856 34.9896 38.232 34.9416 38.56C34.9016 38.888 34.7976 39.164 34.6296 39.388C34.4696 39.612 34.2256 39.78 33.8976 39.892C33.5776 40.004 33.1456 40.06 32.6016 40.06ZM36.8228 40L36.5828 31.432H37.5548L37.7948 40H36.8228Z" fill="#53D258"/>
</svg>
