<svg width="33" height="44" viewBox="0 0 33 44" fill="none" xmlns="http://www.w3.org/2000/svg">
<path d="M19.3105 9.53265V18.5401C19.3105 19.4278 20.0302 20.1475 20.918 20.1475H21.0735C21.9613 20.1475 22.6809 19.4278 22.6809 18.5401V9.53265C22.6809 8.6449 21.9613 7.92524 21.0735 7.92524H20.918C20.0302 7.92524 19.3105 8.6449 19.3105 9.53265Z" stroke="#53D258" stroke-width="1.5" stroke-linecap="round" stroke-linejoin="round"/>
<path d="M25.7705 5.45857V18.5401C25.7705 19.4278 26.4902 20.1475 27.3779 20.1475H27.5335C28.4212 20.1475 29.1409 19.4278 29.1409 18.5401V5.45857C29.1409 4.57083 28.4212 3.85116 27.5335 3.85116H27.3779C26.4902 3.85116 25.7705 4.57083 25.7705 5.45857Z" stroke="#53D258" stroke-width="1.5" stroke-linecap="round" stroke-linejoin="round"/>
<path d="M12.8516 14.4512V18.5401C12.8516 19.4278 13.5712 20.1475 14.459 20.1475H14.6145C15.5023 20.1475 16.2219 19.4278 16.2219 18.5401V14.4512C16.2219 13.5634 15.5023 12.8438 14.6145 12.8438H14.459C13.5712 12.8438 12.8516 13.5634 12.8516 14.4512Z" stroke="#53D258" stroke-width="1.5" stroke-linecap="round" stroke-linejoin="round"/>
<path d="M0.36 40.012C0.36 39.82 0.376 39.616 0.408 39.4C0.448 39.176 0.504 38.94 0.576 38.692C0.656 38.436 0.752 38.168 0.864 37.888L1.728 38.224C1.648 38.448 1.576 38.66 1.512 38.86C1.456 39.06 1.412 39.248 1.38 39.424C1.356 39.6 1.344 39.768 1.344 39.928C1.344 40.336 1.452 40.68 1.668 40.96C1.884 41.24 2.164 41.448 2.508 41.584C2.86 41.728 3.236 41.8 3.636 41.8C4.42 41.8 5.032 41.66 5.472 41.38C5.912 41.108 6.22 40.744 6.396 40.288C6.572 39.84 6.648 39.348 6.624 38.812L6.36 31.432H7.356L7.548 37.516C7.564 37.924 7.628 38.244 7.74 38.476C7.86 38.7 8.02 38.856 8.22 38.944C8.42 39.032 8.64 39.076 8.88 39.076C9.048 39.076 9.168 39.124 9.24 39.22C9.32 39.308 9.36 39.416 9.36 39.544C9.36 39.672 9.304 39.792 9.192 39.904C9.08 40.008 8.936 40.06 8.76 40.06C8.512 40.06 8.3 40.028 8.124 39.964C7.948 39.892 7.804 39.804 7.692 39.7C7.58 39.588 7.492 39.464 7.428 39.328C7.364 39.184 7.316 39.04 7.284 38.896L7.62 39.232C7.588 39.656 7.496 40.076 7.344 40.492C7.2 40.916 6.976 41.3 6.672 41.644C6.368 41.988 5.96 42.264 5.448 42.472C4.944 42.68 4.32 42.784 3.576 42.784C3.16 42.784 2.756 42.72 2.364 42.592C1.98 42.472 1.636 42.292 1.332 42.052C1.036 41.812 0.8 41.52 0.624 41.176C0.448 40.84 0.36 40.452 0.36 40.012ZM16.4096 40.06C16.0736 40.06 15.7656 40.04 15.4856 40C15.2056 39.952 14.9536 39.868 14.7296 39.748C14.5056 39.628 14.3176 39.456 14.1656 39.232C14.0136 39 13.8976 38.696 13.8176 38.32L14.5256 37.9C14.6296 38.22 14.7576 38.464 14.9096 38.632C15.0616 38.8 15.2656 38.916 15.5216 38.98C15.7856 39.044 16.1216 39.076 16.5296 39.076C16.6976 39.076 16.8176 39.124 16.8896 39.22C16.9696 39.308 17.0096 39.416 17.0096 39.544C17.0096 39.672 16.9536 39.792 16.8416 39.904C16.7296 40.008 16.5856 40.06 16.4096 40.06ZM8.76562 40.06L8.87363 39.076C9.28963 39.076 9.69763 39.044 10.0976 38.98C10.4976 38.916 10.8896 38.824 11.2736 38.704C11.6576 38.584 12.0256 38.44 12.3776 38.272C12.7376 38.096 13.0776 37.896 13.3976 37.672C13.1896 37.488 12.9496 37.328 12.6776 37.192C12.4056 37.056 12.1056 36.952 11.7776 36.88C11.4576 36.8 11.1176 36.76 10.7576 36.76C10.6296 36.76 10.5096 36.764 10.3976 36.772C10.2856 36.78 10.1736 36.796 10.0616 36.82C9.94963 36.836 9.82163 36.86 9.67763 36.892L9.48563 35.98C9.70163 35.916 9.91763 35.868 10.1336 35.836C10.3496 35.796 10.5576 35.776 10.7576 35.776C11.1736 35.776 11.5496 35.828 11.8856 35.932C12.2216 36.028 12.5256 36.148 12.7976 36.292C13.0776 36.436 13.3376 36.58 13.5776 36.724C13.8256 36.868 14.0656 36.992 14.2976 37.096C14.5296 37.192 14.7696 37.24 15.0176 37.24H15.2696L15.3536 38.104C15.0096 38.104 14.6936 38.152 14.4056 38.248C14.1176 38.344 13.8336 38.468 13.5536 38.62C13.2816 38.764 12.9936 38.92 12.6896 39.088C12.3856 39.248 12.0496 39.404 11.6816 39.556C11.3136 39.7 10.8896 39.82 10.4096 39.916C9.93763 40.012 9.38963 40.06 8.76562 40.06ZM11.8976 42.232C11.7296 42.232 11.5856 42.172 11.4656 42.052C11.3536 41.94 11.2976 41.804 11.2976 41.644C11.2976 41.484 11.3536 41.344 11.4656 41.224C11.5856 41.104 11.7296 41.044 11.8976 41.044C12.0576 41.044 12.1936 41.104 12.3056 41.224C12.4256 41.344 12.4856 41.484 12.4856 41.644C12.4856 41.804 12.4256 41.94 12.3056 42.052C12.1936 42.172 12.0576 42.232 11.8976 42.232ZM16.4062 40.06L16.5263 39.076C16.7823 39.076 16.9903 39.06 17.1503 39.028C17.3103 38.988 17.4423 38.896 17.5463 38.752C17.6583 38.6 17.7623 38.364 17.8583 38.044C17.9543 37.724 18.0663 37.276 18.1943 36.7L19.0943 36.952C19.0463 37.152 18.9903 37.392 18.9263 37.672C18.8623 37.952 18.8303 38.208 18.8303 38.44C18.8303 38.568 18.8623 38.68 18.9263 38.776C18.9903 38.872 19.0983 38.948 19.2503 39.004C19.4103 39.052 19.6223 39.076 19.8863 39.076C20.1263 39.076 20.3223 39.056 20.4743 39.016C20.6263 38.976 20.7503 38.88 20.8463 38.728C20.9503 38.576 21.0423 38.332 21.1223 37.996C21.2023 37.66 21.2863 37.2 21.3743 36.616L22.2863 36.784C22.2623 36.928 22.2343 37.104 22.2023 37.312C22.1703 37.52 22.1383 37.728 22.1063 37.936C22.0823 38.136 22.0703 38.304 22.0703 38.44C22.0703 38.552 22.0943 38.66 22.1423 38.764C22.1983 38.86 22.3023 38.936 22.4543 38.992C22.6143 39.048 22.8503 39.076 23.1623 39.076C23.5623 39.076 23.8503 38.992 24.0263 38.824C24.2103 38.656 24.3023 38.4 24.3023 38.056C24.3023 37.872 24.2983 37.68 24.2903 37.48C24.2823 37.272 24.2663 37.044 24.2423 36.796C24.2263 36.54 24.1983 36.248 24.1583 35.92L25.0343 35.86C25.0823 36.508 25.1343 37.04 25.1903 37.456C25.2543 37.872 25.3423 38.2 25.4543 38.44C25.5743 38.672 25.7343 38.836 25.9343 38.932C26.1343 39.028 26.3983 39.076 26.7263 39.076C26.8943 39.076 27.0143 39.124 27.0863 39.22C27.1663 39.308 27.2063 39.416 27.2063 39.544C27.2063 39.672 27.1503 39.792 27.0383 39.904C26.9263 40.008 26.7823 40.06 26.6063 40.06C26.3343 40.06 26.0903 40.024 25.8743 39.952C25.6663 39.872 25.4823 39.768 25.3223 39.64C25.1703 39.504 25.0423 39.352 24.9383 39.184C24.8423 39.008 24.7743 38.824 24.7343 38.632L24.9503 38.704C24.8623 39.064 24.7223 39.344 24.5303 39.544C24.3463 39.736 24.1263 39.872 23.8703 39.952C23.6143 40.024 23.3423 40.06 23.0543 40.06C22.7023 40.06 22.4143 40.016 22.1903 39.928C21.9663 39.84 21.7903 39.708 21.6623 39.532C21.5423 39.348 21.4623 39.116 21.4223 38.836H21.8303C21.6783 39.18 21.5183 39.44 21.3503 39.616C21.1823 39.792 20.9743 39.912 20.7263 39.976C20.4783 40.032 20.1503 40.06 19.7423 40.06C19.5423 40.06 19.3263 40.028 19.0943 39.964C18.8703 39.9 18.6743 39.776 18.5063 39.592C18.3383 39.4 18.2383 39.116 18.2063 38.74L18.5663 38.668C18.4303 39.076 18.2623 39.38 18.0623 39.58C17.8703 39.772 17.6383 39.9 17.3663 39.964C17.0943 40.028 16.7743 40.06 16.4062 40.06ZM26.6016 40.06L26.7096 39.076C27.1656 39.076 27.4856 39.032 27.6696 38.944C27.8536 38.856 27.9576 38.7 27.9816 38.476C28.0136 38.252 28.0216 37.94 28.0056 37.54L27.7776 31.432H28.7496L28.9896 37.432C29.0056 37.856 28.9896 38.232 28.9416 38.56C28.9016 38.888 28.7976 39.164 28.6296 39.388C28.4696 39.612 28.2256 39.78 27.8976 39.892C27.5776 40.004 27.1456 40.06 26.6016 40.06ZM30.8228 40L30.5828 31.432H31.5548L31.7948 40H30.8228Z" fill="#53D258"/>
</svg>
