<svg width="24" height="23" viewBox="0 0 24 23" fill="none" xmlns="http://www.w3.org/2000/svg">
<path fill-rule="evenodd" clip-rule="evenodd" d="M10.904 0.625072C12.27 0.230449 14.0986 0 16.0769 0C18.0552 0 19.8838 0.230449 21.2498 0.625072C21.9261 0.820445 22.5462 1.07213 23.02 1.39574C23.461 1.69698 24 2.22154 24 3V13C24 13.7911 23.407 14.3035 22.9932 14.5755C22.5201 14.8864 21.8992 15.1387 21.2155 15.3394C20.0697 15.6757 18.6023 15.9088 17 15.9784V19.9368C17 20.7146 16.4707 21.2473 16.0216 21.5603C15.5435 21.8935 14.9168 22.1532 14.2325 22.3549C12.8507 22.7622 11.001 23 9 23C6.99901 23 5.14934 22.7622 3.76753 22.3549C3.08316 22.1532 2.45649 21.8935 1.97836 21.5603C1.52927 21.2473 1 20.7146 1 19.9368V15C1 14.2164 1.54781 13.6918 1.99033 13.3929C2.11805 13.3066 2.25635 13.2254 2.40348 13.1491C1.91723 12.992 1.48226 12.8111 1.12667 12.6047C0.868929 12.4551 0.609529 12.2674 0.404314 12.0287C0.196196 11.7867 0 11.4379 0 11V6C0 5.15203 0.663255 4.63052 1.11985 4.36064C1.64339 4.0512 2.33439 3.8072 3.10061 3.61564C4.45367 3.27738 6.21747 3.06006 8.15385 3.01072V3C8.15385 2.22154 8.69284 1.69698 9.13389 1.39574C9.60769 1.07213 10.2277 0.820445 10.904 0.625072ZM10.1538 5.12365V7.92678C10.4085 8.0814 10.8172 8.25574 11.3824 8.41919C12.5676 8.76188 14.2411 9 16.0769 9C17.9128 9 19.5446 8.76187 20.6867 8.42149C21.2641 8.24938 21.6651 8.06612 21.8989 7.90933C21.9429 7.87979 21.9758 7.85501 22 7.8352V5.12365C21.7617 5.21633 21.5099 5.29979 21.2498 5.37493C19.8838 5.76955 18.0552 6 16.0769 6C14.0986 6 12.27 5.76955 10.904 5.37493C10.6439 5.29979 10.3922 5.21633 10.1538 5.12365ZM22.0373 2.83369C22.041 2.82754 22.0436 2.82453 22.0439 2.82457C22.0443 2.8246 22.0424 2.82767 22.0373 2.83369ZM21.8187 3C21.5843 3.14347 21.2135 3.30364 20.6947 3.4535C19.5551 3.78273 17.9221 4 16.0769 4C14.2317 4 12.5988 3.78273 11.4591 3.4535C10.9403 3.30364 10.5695 3.14347 10.3352 3C10.5695 2.85653 10.9403 2.69636 11.4591 2.5465C12.5988 2.21727 14.2317 2 16.0769 2C17.9221 2 19.5551 2.21727 20.6947 2.5465C21.2135 2.69636 21.5843 2.85653 21.8187 3ZM10.1099 2.82457C10.1103 2.82453 10.1128 2.82754 10.1166 2.83369C10.1114 2.82767 10.1096 2.8246 10.1099 2.82457ZM22 10.0842C21.7649 10.1767 21.5159 10.2613 21.2579 10.3382C19.8943 10.7446 18.0646 11 16.0769 11C14.0893 11 12.2243 10.7446 10.8269 10.3405C10.5943 10.2732 10.3689 10.2002 10.1538 10.1212V12.026C11.7038 12.0964 13.1155 12.3074 14.2245 12.6243C14.9071 12.8193 15.5322 13.0703 16.0097 13.3929C16.224 13.5377 16.4631 13.7354 16.6527 13.9899C18.2256 13.9413 19.6282 13.7209 20.6522 13.4203C21.2405 13.2476 21.6527 13.0632 21.8947 12.9041C21.9405 12.8741 21.9748 12.8488 22 12.8285V10.0842ZM22.0626 12.7689C22.0631 12.769 22.0605 12.7729 22.0533 12.7805C22.0585 12.7727 22.0621 12.7689 22.0626 12.7689ZM15.0455 14.8203C15.0458 14.8203 15.0439 14.8234 15.0386 14.8296C15.0424 14.8233 15.0451 14.8202 15.0455 14.8203ZM8.15385 11.9874V8.98928C6.21747 8.93995 4.45367 8.72262 3.10061 8.38436C2.71014 8.28674 2.3392 8.1755 2 8.04892V10.7911C2.0318 10.8141 2.07453 10.8424 2.13069 10.875C2.42362 11.045 2.91089 11.2356 3.59289 11.4115C4.76214 11.7131 6.35481 11.9338 8.15385 11.9874ZM2.28975 6C2.58249 6.14612 3.01319 6.30095 3.58568 6.44407C4.75387 6.73612 6.3482 6.93959 8.15385 6.98859V5.01141C6.3482 5.06041 4.75387 5.26388 3.58568 5.55593C3.01319 5.69905 2.58249 5.85388 2.28975 6ZM9.93406 7.76037C9.93456 7.76032 9.93833 7.76428 9.94383 7.77241C9.9363 7.76449 9.93355 7.76042 9.93406 7.76037ZM1.93492 5.76855C1.93545 5.76848 1.93931 5.7724 1.94491 5.78049C1.93719 5.77266 1.93439 5.76861 1.93492 5.76855ZM22.0505 7.78883C22.0554 7.78135 22.0587 7.77769 22.0592 7.77773C22.0596 7.77778 22.0572 7.78152 22.0505 7.78883ZM9 14C7.13278 14 5.47958 14.2174 4.32497 14.5473C3.80252 14.6966 3.42735 14.8563 3.18867 15C3.42735 15.1437 3.80252 15.3034 4.32497 15.4527C5.47958 15.7826 7.13278 16 9 16C10.8672 16 12.5204 15.7826 13.675 15.4527C14.1975 15.3034 14.5726 15.1437 14.8113 15C14.5726 14.8563 14.1975 14.6966 13.675 14.5473C12.5204 14.2174 10.8672 14 9 14ZM15 17.1178C14.7541 17.2131 14.4938 17.2988 14.2245 17.3757C12.8456 17.7697 10.9988 18 9 18C7.00123 18 5.15442 17.7697 3.77553 17.3757C3.50622 17.2988 3.24587 17.2131 3 17.1178V19.823C3.0242 19.8459 3.0627 19.8782 3.12183 19.9194C3.35213 20.0799 3.7506 20.2648 4.33298 20.4365C5.48467 20.7759 7.13499 21 9 21C10.865 21 12.5153 20.7759 13.667 20.4365C14.2494 20.2648 14.6479 20.0799 14.8782 19.9194C14.9373 19.8782 14.9758 19.8459 15 19.823V17.1178ZM15.0364 19.7823C15.0367 19.7823 15.0351 19.7851 15.0307 19.7905C15.0339 19.785 15.0361 19.7822 15.0364 19.7823ZM2.96361 19.7823C2.96391 19.7822 2.96608 19.785 2.96924 19.7905C2.96488 19.7851 2.96331 19.7823 2.96361 19.7823ZM2.95454 14.8203C2.95491 14.8202 2.95757 14.8233 2.96144 14.8296C2.95611 14.8234 2.95418 14.8203 2.95454 14.8203Z" fill="#33404F"/>
</svg>
